<svg height="480pt" viewBox="0 0 480 480" width="480pt" xmlns="http://www.w3.org/2000/svg" style="fill: #ffffff;"><path d="m124.105469 112h-36.121094c-4.417969 0-8 3.582031-8 8v80c0 4.417969 3.582031 8 8 8h36.121094l-25.542969 25.535156c-3.125 3.125-3.125 8.1875 0 11.3125l56.574219 56.578125c3.171875 3 8.136719 3 11.3125 0l25.535156-25.546875v36.121094c0 4.417969 3.582031 8 8 8h80c4.417969 0 8-3.582031 8-8v-36.121094l25.535156 25.546875c3.125 3.121094 8.1875 3.121094 11.3125 0l56.578125-56.578125c3.121094-3.125 3.121094-8.1875 0-11.3125l-25.546875-25.535156h36.121094c4.417969 0 8-3.582031 8-8v-80c0-4.417969-3.582031-8-8-8h-36.121094l25.546875-25.535156c3.121094-3.125 3.121094-8.1875 0-11.3125l-56.578125-56.578125c-3.171875-3-8.136719-3-11.3125 0l-25.535156 25.546875v-36.121094c0-4.417969-3.582031-8-8-8h-80c-4.417969 0-8 3.582031-8 8v36.121094l-25.535156-25.546875c-3.125-3.121094-8.1875-3.121094-11.3125 0l-56.574219 56.578125c-3.125 3.125-3.125 8.1875 0 11.3125zm36.679687-76.457031 27.886719 27.90625c2.347656 2.347656 5.898437 3.003906 8.929687 1.648437 1.71875-.800781 3.480469-1.464844 5.238282-2.144531 3.097656-1.183594 5.140625-4.152344 5.144531-7.464844v-39.488281h64v39.488281c.003906 3.3125 2.042969 6.277344 5.136719 7.464844 1.757812.679687 3.519531 1.375 5.238281 2.144531 3.03125 1.355469 6.582031.699219 8.929687-1.648437l27.894532-27.90625 45.257812 45.257812-27.90625 27.886719c-2.347656 2.347656-3.003906 5.898438-1.644531 8.929688.796875 1.71875 1.460937 3.480468 2.140625 5.238281 1.1875 3.09375 4.15625 5.132812 7.464844 5.136719h39.488281v64h-39.488281c-3.308594.003906-6.277344 2.042968-7.464844 5.136718-.679688 1.757813-1.375 3.519532-2.140625 5.238282-1.359375 3.03125-.703125 6.582031 1.644531 8.929687l27.90625 27.902344-45.257812 45.257812-27.886719-27.90625c-2.347656-2.347656-5.898437-3.003906-8.929687-1.648437-1.71875.800781-3.476563 1.464844-5.238282 2.144531-3.089844 1.1875-5.132812 4.152344-5.136718 7.464844v39.488281h-64.007813v-39.488281c-.003906-3.3125-2.042969-6.277344-5.136719-7.464844-1.757812-.679687-3.519531-1.375-5.238281-2.144531-3.03125-1.355469-6.582031-.699219-8.929687 1.648437l-27.894532 27.90625-45.257812-45.257812 27.90625-27.886719c2.347656-2.347656 3.003906-5.898438 1.648437-8.929688-.800781-1.71875-1.464843-3.480468-2.144531-5.238281-1.183594-3.09375-4.152344-5.140625-7.464844-5.144531h-39.488281v-64h39.488281c3.3125-.003906 6.277344-2.042969 7.464844-5.136719.679688-1.757812 1.375-3.519531 2.144531-5.238281 1.355469-3.03125.699219-6.582031-1.648437-8.929688l-27.90625-27.894531zm0 0"/><path d="m239.984375 232c39.765625 0 72-32.234375 72-72s-32.234375-72-72-72-72 32.234375-72 72c.050781 39.746094 32.257813 71.953125 72 72zm0-128c30.929687 0 56 25.070312 56 56s-25.070313 56-56 56c-30.925781 0-56-25.070312-56-56 .035156-30.914062 25.085937-55.964844 56-56zm0 0"/><path d="m367.984375 464h-171.449219l-167.292968-96.585938c-8.121094-4.730468-10.875-15.144531-6.152344-23.269531 4.792968-7.957031 15.019531-10.699219 23.152344-6.207031.246093.140625 191.023437 86.0625 193.742187 86.0625h2.914063c3.777343-.011719 7.03125-2.667969 7.800781-6.363281.773437-3.699219-1.144531-7.433594-4.601563-8.957031l-192.28125-84.839844c-15.832031-8.769532-35.777344-3.15625-44.710937 12.585937-8.933594 15.742188-3.527344 35.742188 12.121093 44.839844l169.160157 97.664063c1.214843.699218 2.59375 1.070312 4 1.070312h173.597656c4.417969 0 8-3.582031 8-8s-3.582031-8-8-8zm0 0"/><path d="m407.984375 344h-144c-13.253906 0-24 10.746094-24 24v16c0 13.253906 10.746094 24 24 24h96c4.417969 0 8-3.582031 8-8s-3.582031-8-8-8h-96c-4.417969 0-8-3.582031-8-8v-16c0-4.417969 3.582031-8 8-8h144c22.113281 0 56 26.878906 56 60 0 4.417969 3.582031 8 8 8s8-3.582031 8-8c0-40.929688-39.589844-76-72-76zm0 0"/><path d="m25.402344 71.28125c1.933594.875 4.136718.945312 6.125.195312 1.984375-.75 3.59375-2.261718 4.464844-4.195312 2.402343-5.191406 4.984374-10.402344 7.777343-15.449219 2.054688-3.859375.632813-8.65625-3.195312-10.765625-3.828125-2.113281-8.644531-.761718-10.8125 3.039063-2.992188 5.4375-5.777344 11.007812-8.328125 16.582031-1.828125 4.019531-.050782 8.761719 3.96875 10.59375zm0 0"/><path d="m36.703125 279.878906c2.835937 0 5.457031-1.5 6.890625-3.941406 1.4375-2.441406 1.476562-5.460938.101562-7.9375-29.773437-54.257812-35.851562-118.394531-16.796874-177.28125 1.136718-4.121094-1.167969-8.414062-5.238282-9.738281-4.070312-1.320313-8.457031.789062-9.964844 4.796875-20.417968 63.097656-13.90625 131.824218 17.992188 189.964844 1.410156 2.558593 4.097656 4.140624 7.015625 4.136718zm0 0"/><path d="m54.671875 235.375c1.667969 4.09375 6.335937 6.0625 10.429687 4.398438 4.09375-1.667969 6.0625-6.335938 4.394532-10.429688-23.765625-58.597656-15.832032-125.289062 21.015625-176.679688 2.410156-3.585937 1.539062-8.4375-1.96875-10.957031-3.507813-2.523437-8.382813-1.804687-11.015625 1.621094-40.0625 55.855469-48.691406 128.351563-22.855469 192.046875zm0 0"/><path d="m69.832031 249.390625c-1.835937 1.066406-3.171875 2.820313-3.714843 4.875-.542969 2.050781-.25 4.234375.820312 6.070313 3.199219 5.527343 6.742188 10.992187 10.496094 16.214843 2.582031 3.589844 7.585937 4.40625 11.175781 1.824219s4.40625-7.585938 1.824219-11.175781c-3.457032-4.800781-6.703125-9.832031-9.664063-14.917969-2.222656-3.816406-7.121093-5.109375-10.9375-2.890625zm0 0"/><path d="m443.984375 67.3125c1.140625 2.667969 3.636719 4.507812 6.523437 4.808594 2.886719.300781 5.707032-.984375 7.375-3.355469 1.667969-2.375 1.921876-5.464844.660157-8.078125-2.535157-5.597656-5.335938-11.144531-8.324219-16.550781-2.167969-3.796875-6.984375-5.152344-10.8125-3.039063-3.832031 2.113282-5.253906 6.90625-3.199219 10.765625 2.785157 5.058594 5.378907 10.257813 7.777344 15.449219zm0 0"/><path d="m453.074219 90.734375c19.050781 58.886719 12.972656 123.023437-16.800781 177.28125-1.429688 2.507813-1.402344 5.589844.078124 8.066406 1.480469 2.476563 4.179688 3.96875 7.0625 3.898438 2.886719-.070313 5.507813-1.691407 6.867188-4.238281 31.90625-58.132813 38.421875-126.851563 18.015625-189.949219-1.503906-4.007813-5.894531-6.117188-9.964844-4.792969-4.066406 1.320312-6.375 5.613281-5.234375 9.734375zm0 0"/><path d="m423.984375 160c.046875 23.773438-4.542969 47.328125-13.511719 69.34375-1.664062 4.09375.300782 8.761719 4.394532 10.429688 4.09375 1.664062 8.765624-.304688 10.429687-4.398438 25.835937-63.695312 17.207031-136.191406-22.855469-192.046875-2.632812-3.425781-7.507812-4.144531-11.015625-1.621094-3.507812 2.519531-4.378906 7.371094-1.96875 10.957031 22.535157 31.242188 34.621094 68.8125 34.527344 107.335938zm0 0"/><path d="m399.183594 252.296875c-2.957032 5.085937-6.207032 10.109375-9.664063 14.917969-2.578125 3.589844-1.757812 8.589844 1.832031 11.167968 3.589844 2.578126 8.589844 1.757813 11.167969-1.832031 3.753907-5.222656 7.28125-10.6875 10.496094-16.214843 1.476563-2.472657 1.511719-5.546876.085937-8.054688-1.421874-2.503906-4.082031-4.046875-6.960937-4.046875-2.882813.003906-5.539063 1.554687-6.957031 4.0625zm0 0"/></svg>